# xmcd
# Copyright (C) 1995-1998 Ti Kan
#
# Track frame offsets:
#       150
#       18691
#       35239
#       50162
#       64624
#       86427
#       106375
#       124947
#       139916
#       152578
#       162036
#       186274
#       210955
#       230648
#       240009
#       264181
#       277141
#       286577
#
# Disc length: 4116 seconds
#
# Revision: 0
# Processed by: cddbd v1.5.2PL0 Copyright (c) Steve Scherf et al.
# Submitted via: CD-Transfer v1.0
#
DISCID=f9101212
DTITLE=Various Artist - 
DYEAR=1900
DGENRE=
TTITLE0=Jenkins   Elegia
TTITLE1=Cano-Andres   Hijo de La Luna
TTITLE2=Foster   Jeannie With The Light Brown Hair
TTITLE3=Morricone   Cinema Paradiso 
TTITLE4=Sakamoto   Put Your Hands Up
TTITLE5=Adams   Everything I Do
TTITLE6=Debussy   Arabesque Nr. 1 - Andantino Con Moto
TTITLE7=Puccini   O Mio Babbino Caro
TTITLE8=Bernstein   West Side Story
TTITLE9=Delibes    Sylvia - Intermezzo
TTITLE10=Liszt   Liebestraum
TTITLE11=Doyle   Sense and Sensibility
TTITLE12=Gershwin   Sleepless Night
TTITLE13=MacDowell   To A Wild Rose
TTITLE14=Satie   Je Te Veux
TTITLE15=Rota   Der Pate
TTITLE16=Wiseman   Tom and Viv
TTITLE17=Gulda   Aria 
EXTD=
EXTT0=
EXTT1=
EXTT2=
EXTT3=
EXTT4=
EXTT5=
EXTT6=
EXTT7=
EXTT8=
EXTT9=
EXTT10=
EXTT11=
EXTT12=
EXTT13=
EXTT14=
EXTT15=
EXTT16=
EXTT17=
PLAYORDER=
